<?xml version="1.0" standalone="no"?>
<svg xmlns:xlink="http://www.w3.org/1999/xlink" id="wave" style="transform:rotate(180deg); transition: 0.3s" viewBox="0 0 1440 110" version="1.1" xmlns="http://www.w3.org/2000/svg"><defs><linearGradient id="sw-gradient-0" x1="0" x2="0" y1="1" y2="0"><stop stop-color="rgba(14, 10, 11, 1)" offset="0%"/><stop stop-color="rgba(27.179, 0, 17.09, 1)" offset="100%"/></linearGradient></defs><path style="transform:translate(0, 0px); opacity:1" fill="url(#sw-gradient-0)" d="M0,11L75.8,11L151.6,0L227.4,22L303.2,88L378.9,99L454.7,55L530.5,22L606.3,0L682.1,77L757.9,77L833.7,99L909.5,55L985.3,88L1061.1,77L1136.8,11L1212.6,77L1288.4,33L1364.2,88L1440,22L1515.8,22L1591.6,88L1667.4,11L1743.2,0L1818.9,22L1818.9,110L1743.2,110L1667.4,110L1591.6,110L1515.8,110L1440,110L1364.2,110L1288.4,110L1212.6,110L1136.8,110L1061.1,110L985.3,110L909.5,110L833.7,110L757.9,110L682.1,110L606.3,110L530.5,110L454.7,110L378.9,110L303.2,110L227.4,110L151.6,110L75.8,110L0,110Z"/><defs><linearGradient id="sw-gradient-1" x1="0" x2="0" y1="1" y2="0"><stop stop-color="rgba(19.629, 20.662, 31.733, 1)" offset="0%"/><stop stop-color="rgba(1.143, 0, 70.438, 1)" offset="100%"/></linearGradient></defs><path style="transform:translate(0, 50px); opacity:0.9" fill="url(#sw-gradient-1)" d="M0,88L75.8,77L151.6,55L227.4,33L303.2,22L378.9,88L454.7,99L530.5,11L606.3,33L682.1,77L757.9,77L833.7,44L909.5,66L985.3,77L1061.1,33L1136.8,66L1212.6,99L1288.4,22L1364.2,22L1440,88L1515.8,77L1591.6,55L1667.4,66L1743.2,66L1818.9,55L1818.9,110L1743.2,110L1667.4,110L1591.6,110L1515.8,110L1440,110L1364.2,110L1288.4,110L1212.6,110L1136.8,110L1061.1,110L985.3,110L909.5,110L833.7,110L757.9,110L682.1,110L606.3,110L530.5,110L454.7,110L378.9,110L303.2,110L227.4,110L151.6,110L75.8,110L0,110Z"/><defs><linearGradient id="sw-gradient-2" x1="0" x2="0" y1="1" y2="0"><stop stop-color="rgba(43.117, 24.479, 29.139, 1)" offset="0%"/><stop stop-color="rgba(38.563, 0, 19.023, 1)" offset="100%"/></linearGradient></defs><path style="transform:translate(0, 100px); opacity:0.8" fill="url(#sw-gradient-2)" d="M0,0L75.8,44L151.6,22L227.4,22L303.2,88L378.9,22L454.7,55L530.5,66L606.3,66L682.1,33L757.9,77L833.7,44L909.5,99L985.3,22L1061.1,44L1136.8,11L1212.6,33L1288.4,88L1364.2,77L1440,0L1515.8,11L1591.6,33L1667.4,55L1743.2,11L1818.9,0L1818.9,110L1743.2,110L1667.4,110L1591.6,110L1515.8,110L1440,110L1364.2,110L1288.4,110L1212.6,110L1136.8,110L1061.1,110L985.3,110L909.5,110L833.7,110L757.9,110L682.1,110L606.3,110L530.5,110L454.7,110L378.9,110L303.2,110L227.4,110L151.6,110L75.8,110L0,110Z"/></svg>